<?xml version="1.0" encoding="utf-8"?>
<!-- Generator: Adobe Illustrator 24.1.3, SVG Export Plug-In . SVG Version: 6.00 Build 0)  -->
<svg version="1.1" id="Layer_1" xmlns="http://www.w3.org/2000/svg" xmlns:xlink="http://www.w3.org/1999/xlink" x="0px" y="0px"
	 viewBox="0 0 53 49" style="enable-background:new 0 0 53 49;" xml:space="preserve">
<style type="text/css">
	.st0{fill-rule:evenodd;clip-rule:evenodd;fill:#5ED7C6;}
	.st1{filter:url(#Adobe_OpacityMaskFilter);}
	.st2{fill-rule:evenodd;clip-rule:evenodd;fill:#FFFFFF;}
	.st3{mask:url(#mask-2_1_);enable-background:new    ;}
	.st4{fill:#572EE5;}
</style>
<desc>Created with Sketch.</desc>
<g id="logo-mobile" transform="translate(347.000000, 2463.000000)">
	<g id="Group-5">
		<polygon id="Fill-1" class="st0" points="-347,-2463 -347,-2414.2 -298.2,-2414.2 -298.2,-2424.7 -301.7,-2424.7 -301.7,-2417.7 
			-343.5,-2417.7 -343.5,-2459.5 -312.1,-2459.5 -312.1,-2449.1 -301.7,-2449.1 -301.7,-2442.1 -298.2,-2442.1 -298.2,-2452.5 
			-308.7,-2463 		"/>
		<g id="Group-4" transform="translate(7.000000, 16.000000)">
			<g id="Clip-3">
			</g>
			<defs>
				<filter id="Adobe_OpacityMaskFilter" filterUnits="userSpaceOnUse" x="-345.3" y="-2454.5" width="43.9" height="11.7">
					<feColorMatrix  type="matrix" values="1 0 0 0 0  0 1 0 0 0  0 0 1 0 0  0 0 0 1 0"/>
				</filter>
			</defs>
			<mask maskUnits="userSpaceOnUse" x="-345.3" y="-2454.5" width="43.9" height="11.7" id="mask-2_1_">
				<g class="st1">
					<polygon id="path-1_1_" class="st2" points="-346.2,-2462.1 -298.5,-2462.1 -298.5,-2442.5 -346.2,-2442.5 					"/>
				</g>
			</mask>
			<g class="st3">
				<path class="st4" d="M-336-2444.4c-0.4,0.5-1,0.9-1.8,1.2c-0.8,0.3-1.6,0.4-2.6,0.4c-1,0-1.8-0.2-2.6-0.6s-1.3-1.1-1.7-1.9
					c-0.4-0.8-0.6-1.8-0.6-2.9v-0.8c0-1.1,0.2-2.1,0.6-2.9s0.9-1.5,1.7-1.9c0.7-0.4,1.6-0.7,2.5-0.7c1.3,0,2.4,0.3,3.2,1
					c0.8,0.6,1.2,1.6,1.4,2.8h-2.3c-0.1-0.7-0.3-1.1-0.7-1.4c-0.4-0.3-0.8-0.5-1.5-0.5c-0.8,0-1.4,0.3-1.8,0.9
					c-0.4,0.6-0.6,1.5-0.6,2.7v0.7c0,1.2,0.2,2.1,0.7,2.7s1.1,0.9,2,0.9c0.9,0,1.5-0.2,1.9-0.6v-2h-2.1v-1.7h4.5V-2444.4z"/>
				<path class="st4" d="M-331.6-2443h-2.3v-11.4h2.3V-2443z"/>
				<path class="st4" d="M-322.6-2447.6h-4.5v4.6h-2.3v-11.4h7.4v1.9h-5.1v2.9h4.5V-2447.6z"/>
				<path class="st4" d="M-311.3-2448.4c0,1.1-0.2,2.1-0.6,2.9c-0.4,0.8-1,1.5-1.7,2c-0.7,0.5-1.6,0.7-2.5,0.7
					c-0.9,0-1.8-0.2-2.5-0.7c-0.7-0.5-1.3-1.1-1.7-1.9s-0.6-1.8-0.6-2.9v-0.6c0-1.1,0.2-2.1,0.6-3c0.4-0.9,1-1.5,1.7-2
					c0.7-0.5,1.6-0.7,2.5-0.7c0.9,0,1.8,0.2,2.5,0.7c0.7,0.5,1.3,1.1,1.7,2c0.4,0.9,0.6,1.8,0.6,2.9V-2448.4z M-313.7-2448.9
					c0-1.2-0.2-2.1-0.6-2.7c-0.4-0.6-1-0.9-1.8-0.9c-0.8,0-1.4,0.3-1.8,0.9c-0.4,0.6-0.6,1.5-0.6,2.7v0.6c0,1.2,0.2,2.1,0.6,2.7
					c0.4,0.6,1,1,1.8,1c0.8,0,1.4-0.3,1.8-0.9s0.6-1.5,0.6-2.7V-2448.9z"/>
				<path class="st4" d="M-303.7-2446c0-0.4-0.2-0.8-0.5-1s-0.9-0.5-1.7-0.8s-1.5-0.5-1.9-0.8c-1.3-0.7-1.9-1.6-1.9-2.8
					c0-0.6,0.2-1.2,0.5-1.6c0.3-0.5,0.8-0.9,1.5-1.1s1.4-0.4,2.2-0.4c0.8,0,1.5,0.1,2.2,0.4c0.6,0.3,1.1,0.7,1.5,1.2
					s0.5,1.1,0.5,1.8h-2.3c0-0.5-0.2-0.9-0.5-1.2s-0.8-0.4-1.4-0.4c-0.6,0-1,0.1-1.3,0.4c-0.3,0.2-0.5,0.6-0.5,1
					c0,0.4,0.2,0.7,0.6,0.9c0.4,0.2,0.9,0.5,1.6,0.7c1.3,0.4,2.3,0.9,2.9,1.5s0.9,1.3,0.9,2.2c0,1-0.4,1.8-1.1,2.3
					c-0.7,0.6-1.7,0.8-3,0.8c-0.9,0-1.7-0.2-2.4-0.5s-1.3-0.8-1.6-1.3c-0.4-0.6-0.6-1.2-0.6-1.9h2.4c0,1.3,0.8,1.9,2.2,1.9
					c0.6,0,1-0.1,1.3-0.3S-303.7-2445.6-303.7-2446z"/>
			</g>
		</g>
	</g>
</g>
</svg>
